<svg width="1024" height="1024" viewBox="0 0 1024 1024" fill="none" xmlns="http://www.w3.org/2000/svg"><rect width="1024" height="1024" rx="226" fill="#1a6b4a"/><g filter="url(#shadow1)"><rect x="312" y="280" width="400" height="500" rx="24" fill="white"/><rect x="432" y="256" width="160" height="56" rx="28" fill="white"/><rect x="456" y="272" width="112" height="32" rx="8" fill="#e8f5ee"/></g><g><rect x="372" y="380" width="48" height="48" rx="8" fill="#e8f5ee" stroke="#1a6b4a" stroke-width="3"/><path d="M384 404 L396 416 L412 392" stroke="#1a6b4a" stroke-width="4" stroke-linecap="round" stroke-linejoin="round" fill="none"/><rect x="440" y="392" width="200" height="24" rx="12" fill="#e8f5ee"/><rect x="372" y="460" width="48" height="48" rx="8" fill="#e8f5ee" stroke="#1a6b4a" stroke-width="3"/><path d="M384 484 L396 496 L412 472" stroke="#1a6b4a" stroke-width="4" stroke-linecap="round" stroke-linejoin="round" fill="none"/><rect x="440" y="472" width="160" height="24" rx="12" fill="#e8f5ee"/><rect x="372" y="540" width="48" height="48" rx="8" fill="white" stroke="#2d8f63" stroke-width="3"/><rect x="440" y="552" width="180" height="24" rx="12" fill="#e8f5ee"/></g><g filter="url(#shadow2)"><ellipse cx="640" cy="620" rx="100" ry="92" fill="#FCD34D"/><path d="M 540 620 Q 540 540, 640 520 Q 740 540, 740 620" fill="#FBBF24"/><ellipse cx="640" cy="620" rx="120" ry="24" fill="#F59E0B"/><ellipse cx="640" cy="616" rx="120" ry="20" fill="#FBBF24"/><ellipse cx="680" cy="560" rx="28" ry="36" fill="#FEF3C7" opacity="0.6"/></g><defs><filter id="shadow1" x="292" y="240" width="440" height="540" filterUnits="userSpaceOnUse" color-interpolation-filters="sRGB"><feFlood flood-opacity="0" result="BackgroundImageFix"/><feColorMatrix in="SourceAlpha" type="matrix" values="0 0 0 0 0 0 0 0 0 0 0 0 0 0 0 0 0 0 127 0" result="hardAlpha"/><feOffset dy="4"/><feGaussianBlur stdDeviation="10"/><feComposite in2="hardAlpha" operator="out"/><feColorMatrix type="matrix" values="0 0 0 0 0 0 0 0 0 0 0 0 0 0 0 0 0 0 0.1 0"/><feBlend mode="normal" in2="BackgroundImageFix" result="effect1_dropShadow"/><feBlend mode="normal" in="SourceGraphic" in2="effect1_dropShadow" result="shape"/></filter><filter id="shadow2" x="500" y="504" width="280" height="256" filterUnits="userSpaceOnUse" color-interpolation-filters="sRGB"><feFlood flood-opacity="0" result="BackgroundImageFix"/><feColorMatrix in="SourceAlpha" type="matrix" values="0 0 0 0 0 0 0 0 0 0 0 0 0 0 0 0 0 0 127 0" result="hardAlpha"/><feOffset dy="8"/><feGaussianBlur stdDeviation="12"/><feComposite in2="hardAlpha" operator="out"/><feColorMatrix type="matrix" values="0 0 0 0 0 0 0 0 0 0 0 0 0 0 0 0 0 0 0.15 0"/><feBlend mode="normal" in2="BackgroundImageFix" result="effect1_dropShadow"/><feBlend mode="normal" in="SourceGraphic" in2="effect1_dropShadow" result="shape"/></filter></defs></svg>